[Header]
FileType HTR
DataType HTRS
FileVersion 1
NumSegments 64
NumFrames 4
DataFrameRate 24
EulerRotationOrder ZYX
CalibrationUnits mm
RotationUnits Degrees
GlobalAxisofGravity Y
BoneLengthAxis Y
ScaleFactor 1.0
[SegmentNames&Hierarchy]
Hips	GLOBAL
Spine	Hips
Spine1	Spine
Spine2	Spine1
Neck	Spine2
Head	Neck
LeftEye	Head
RightEye	Head
LeftShoulder	Spine2
LeftArm	LeftShoulder
LeftForeArm	LeftArm
LeftHand	LeftForeArm
LeftHandThumb1	LeftHand
LeftHandThumb2	LeftHandThumb1
LeftHandThumb3	LeftHandThumb2
LeftHandThumb4	LeftHandThumb3
LeftHandIndex1	LeftHand
LeftHandIndex2	LeftHandIndex1
LeftHandIndex3	LeftHandIndex2
LeftHandIndex4	LeftHandIndex3
LeftHandMiddle1	LeftHand
LeftHandMiddle2	LeftHandMiddle1
LeftHandMiddle3	LeftHandMiddle2
LeftHandMiddle4	LeftHandMiddle3
LeftHandRing1	LeftHand
LeftHandRing2	LeftHandRing1
LeftHandRing3	LeftHandRing2
LeftHandRing4	LeftHandRing3
LeftHandPinky1	LeftHand
LeftHandPinky2	LeftHandPinky1
LeftHandPinky3	LeftHandPinky2
LeftHandPinky4	LeftHandPinky3
RightShoulder	Spine2
RightArm	RightShoulder
RightForeArm	RightArm
RightHand	RightForeArm
RightHandPinky1	RightHand
RightHandPinky2	RightHandPinky1
RightHandPinky3	RightHandPinky2
RightHandPinky4	RightHandPinky3
RightHandRing1	RightHand
RightHandRing2	RightHandRing1
RightHandRing3	RightHandRing2
RightHandRing4	RightHandRing3
RightHandMiddle1	RightHand
RightHandMiddle2	RightHandMiddle1
RightHandMiddle3	RightHandMiddle2
RightHandMiddle4	RightHandMiddle3
RightHandIndex1	RightHand
RightHandIndex2	RightHandIndex1
RightHandIndex3	RightHandIndex2
RightHandIndex4	RightHandIndex3
RightHandThumb1	RightHand
RightHandThumb2	RightHandThumb1
RightHandThumb3	RightHandThumb2
RightHandThumb4	RightHandThumb3
LeftUpLeg	Hips
LeftLeg	LeftUpLeg
LeftFoot	LeftLeg
LeftToeBase	LeftFoot
RightUpLeg	Hips
RightLeg	RightUpLeg
RightFoot	RightLeg
RightToeBase	RightFoot
[BasePosition]
Hips	0	0	0	0	0	0	1
Spine	0	0	0	0	0	0	1
Spine1	0	0	0	0	0	0	1
Spine2	0	0	0	0	0	0	1
Neck	0	0	0	0	0	0	1
Head	0	0	0	0	0	0	1
LeftEye	0	0	0	0	0	0	1
RightEye	0	0	0	0	0	0	1
LeftShoulder	0	0	0	0	0	0	1
LeftArm	0	0	0	0	0	0	1
LeftForeArm	0	0	0	0	0	0	1
LeftHand	0	0	0	0	0	0	1
LeftHandThumb1	0	0	0	0	0	0	1
LeftHandThumb2	0	0	0	0	0	0	1
LeftHandThumb3	0	0	0	0	0	0	1
LeftHandThumb4	0	0	0	0	0	0	1
LeftHandIndex1	0	0	0	0	0	0	1
LeftHandIndex2	0	0	0	0	0	0	1
LeftHandIndex3	0	0	0	0	0	0	1
LeftHandIndex4	0	0	0	0	0	0	1
LeftHandMiddle1	0	0	0	0	0	0	1
LeftHandMiddle2	0	0	0	0	0	0	1
LeftHandMiddle3	0	0	0	0	0	0	1
LeftHandMiddle4	0	0	0	0	0	0	1
LeftHandRing1	0	0	0	0	0	0	1
LeftHandRing2	0	0	0	0	0	0	1
LeftHandRing3	0	0	0	0	0	0	1
LeftHandRing4	0	0	0	0	0	0	1
LeftHandPinky1	0	0	0	0	0	0	1
LeftHandPinky2	0	0	0	0	0	0	1
LeftHandPinky3	0	0	0	0	0	0	1
LeftHandPinky4	0	0	0	0	0	0	1
RightShoulder	0	0	0	0	0	0	1
RightArm	0	0	0	0	0	0	1
RightForeArm	0	0	0	0	0	0	1
RightHand	0	0	0	0	0	0	1
RightHandPinky1	0	0	0	0	0	0	1
RightHandPinky2	0	0	0	0	0	0	1
RightHandPinky3	0	0	0	0	0	0	1
RightHandPinky4	0	0	0	0	0	0	1
RightHandRing1	0	0	0	0	0	0	1
RightHandRing2	0	0	0	0	0	0	1
RightHandRing3	0	0	0	0	0	0	1
RightHandRing4	0	0	0	0	0	0	1
RightHandMiddle1	0	0	0	0	0	0	1
RightHandMiddle2	0	0	0	0	0	0	1
RightHandMiddle3	0	0	0	0	0	0	1
RightHandMiddle4	0	0	0	0	0	0	1
RightHandIndex1	0	0	0	0	0	0	1
RightHandIndex2	0	0	0	0	0	0	1
RightHandIndex3	0	0	0	0	0	0	1
RightHandIndex4	0	0	0	0	0	0	1
RightHandThumb1	0	0	0	0	0	0	1
RightHandThumb2	0	0	0	0	0	0	1
RightHandThumb3	0	0	0	0	0	0	1
RightHandThumb4	0	0	0	0	0	0	1
LeftUpLeg	0	0	0	0	0	0	1
LeftLeg	0	0	0	0	0	0	1
LeftFoot	0	0	0	0	0	0	1
LeftToeBase	0	0	0	0	0	0	1
RightUpLeg	0	0	0	0	0	0	1
RightLeg	0	0	0	0	0	0	1
RightFoot	0	0	0	0	0	0	1
RightToeBase	0	0	0	0	0	0	1
[Hips]
7	1119.922607	931.5643311	-10.13749599	27.0790329	80.21028137	7.452651978	1.0
8	1296.342285	916.4031372	-11.17412758	28.92878914	80.57095337	9.018497467	1.0
9	1472.299194	905.3616333	-11.54245186	26.83726311	80.83959961	6.370838642	1.0
10	1663.121948	915.4533691	-10.10633469	9.365632057	82.33443451	-11.88972282	1.0
[Spine]
7	0	101.8159943	1.315000057	7.4552598	-4.727766037	1.178725839	1.0
8	0	101.8159943	1.315000057	8.286952019	-8.165523529	0.8501520157	1.0
9	0	101.8159943	1.315000057	8.957364082	-11.63134956	1.023506999	1.0
10	0	101.8159943	1.315000057	8.378740311	-14.97152328	4.387170315	1.0
[Spine1]
7	0	100.8349991	-10.00800037	2.902160406	-2.165778399	0.8587962389	1.0
8	0	100.8349991	-10.00800037	3.227245569	-3.468308926	1.033995986	1.0
9	0	100.8349991	-10.00800037	3.491963148	-4.812699318	1.35005939	1.0
10	0	100.8349991	-10.00800037	3.270323992	-6.234359264	2.332651138	1.0
[Spine2]
7	0	91	-13.73399925	2.891224861	-2.168447256	0.8785665631	1.0
8	0	91	-13.73399925	3.218450546	-3.46263361	1.073827505	1.0
9	0	91	-13.73399925	3.483435869	-4.798624039	1.411571383	1.0
10	0	91	-13.73399925	3.246676445	-6.213406563	2.412213802	1.0
[Neck]
7	0	166.7169952	-25.16200066	-1.535420895	-8.883300781	-0.8227840066	1.0
8	0	166.7169952	-25.16200066	-1.98581028	-7.832962513	-1.201586843	1.0
9	0	166.7169952	-25.16200066	-2.41368866	-6.760619164	-1.702655315	1.0
10	0	166.7169952	-25.16200066	-1.782971621	-5.507278442	-2.848124743	1.0
[Head]
7	0	96.17900085	16.84999847	-38.15792847	-42.82188416	39.35475922	1.0
8	0	96.17900085	16.84999847	-37.69950485	-39.46541214	38.89795303	1.0
9	0	96.17900085	16.84999847	-36.97664261	-36.27899933	38.1330452	1.0
10	0	96.17900085	16.84999847	-33.69260025	-34.27565002	34.27439499	1.0
[LeftEye]
7	30.6760006	64.09500122	92.83599854	0	0	0	1.0
8	30.6760006	64.09500122	92.83599854	0	0	0	1.0
9	30.6760006	64.09500122	92.83599854	0	0	0	1.0
10	30.6760006	64.09500122	92.83599854	0	0	0	1.0
[RightEye]
7	-30.6760006	64.09500122	92.83499908	0	0	0	1.0
8	-30.6760006	64.09500122	92.83499908	0	0	0	1.0
9	-30.6760006	64.09500122	92.83499908	0	0	0	1.0
10	-30.6760006	64.09500122	92.83499908	0	0	0	1.0
[LeftShoulder]
7	45.70400238	109.4599991	-26.28000069	3.736509323	-15.23432922	-12.70598698	1.0
8	45.70400238	109.4599991	-26.28000069	3.902920961	-15.33780289	-13.53840446	1.0
9	45.70400238	109.4599991	-26.28000069	3.990657568	-15.51738071	-13.81412125	1.0
10	45.70400238	109.4599991	-26.28000069	3.791676998	-16.09020233	-11.93654823	1.0
[LeftArm]
7	105.923996	-5.24600029	-22.32099915	-6.751065254	20.24096298	-60.70225143	1.0
8	105.923996	-5.24600029	-22.32099915	-5.593499184	11.24809551	-54.24965668	1.0
9	105.923996	-5.24600029	-22.32099915	-5.665891171	1.90669775	-47.07653809	1.0
10	105.923996	-5.24600029	-22.32099915	-9.212945938	-5.641593456	-40.31344986	1.0
[LeftForeArm]
7	278.414978	-0.0009999999311	0	-6.27199654e-07	-30.19944191	-0.0001826425141	1.0
8	278.414978	-0.0009999999311	0	5.219243121e-06	-51.52003479	-0.000201818053	1.0
9	278.414978	-0.0009999999311	0	5.366575351e-05	-74.07064056	-0.0002756164467	1.0
10	278.414978	-0.0009999999311	0	-0.0001068115234	-95.31285095	-0.0001220703125	1.0
[LeftHand]
7	283.2879944	0	0	46.65241623	28.18357277	-25.46117401	1.0
8	283.2879944	0	0	29.13940811	31.03286934	-21.98233223	1.0
9	283.2879944	0	0	13.49093819	33.29359818	-18.06893158	1.0
10	283.2879944	0	0	12.30844879	36.06897736	-14.40579605	1.0
[LeftHandThumb1]
7	24.6609993	-15.75	26.8239994	0.5420499444	4.518194199	-2.062671185	1.0
8	24.6609993	-15.75	26.8239994	0.4624778032	4.316829681	-2.146141529	1.0
9	24.6609993	-15.75	26.8239994	0.2613327801	3.824530125	-2.336327553	1.0
10	24.6609993	-15.75	26.8239994	0.317879498	3.968370914	-2.278370857	1.0
[LeftHandThumb2]
7	32.29800034	-18.64699936	18.64699936	8.566643715	18.21699142	18.90234947	1.0
8	32.29800034	-18.64699936	18.64699936	8.51594162	18.02208519	18.84360695	1.0
9	32.29800034	-18.64699936	18.64699936	8.393898964	17.54488754	18.70176697	1.0
10	32.29800034	-18.64699936	18.64699936	8.429394722	17.68401527	18.74305534	1.0
[LeftHandThumb3]
7	26.52600098	-15.31499958	15.31499958	-27.41488647	-19.27843094	21.42455482	1.0
8	26.52600098	-15.31499958	15.31499958	-27.47909546	-19.41162682	21.45397377	1.0
9	26.52600098	-15.31499958	15.31499958	-27.63718605	-19.73722458	21.52737808	1.0
10	26.52600098	-15.31499958	15.31499958	-27.59106064	-19.6423111	21.50590706	1.0
[LeftHandThumb4]
7	19.54599953	-11.28499985	11.28499985	0	0	0	1.0
8	19.54599953	-11.28499985	11.28499985	0	0	0	1.0
9	19.54599953	-11.28499985	11.28499985	0	0	0	1.0
10	19.54599953	-11.28499985	11.28499985	0	0	0	1.0
[LeftHandIndex1]
7	91.09299469	-5.170999527	22.60099792	-2.277671576	-2.631919861	-34.51259995	1.0
8	91.09299469	-5.170999527	22.60099792	-2.257719994	-2.634335041	-34.30919266	1.0
9	91.09299469	-5.170999527	22.60099792	-2.209903479	-2.646395922	-33.81139755	1.0
10	91.09299469	-5.170999527	22.60099792	-2.223988056	-2.644356728	-33.95646286	1.0
[LeftHandIndex2]
7	36.76399994	0	0	-0.381747663	2.077222109	-20.82517624	1.0
8	36.76399994	0	0	-0.3741248846	2.057302952	-20.61589241	1.0
9	36.76399994	0	0	-0.3560421765	2.008369207	-20.10394287	1.0
10	36.76399994	0	0	-0.3612861633	2.022640467	-20.25320435	1.0
[LeftHandIndex3]
7	28.83100128	0	0	-0.01333775651	0.3946672976	-3.871495485	1.0
8	28.83100128	0	0	-0.01187931187	0.3736965656	-3.665453672	1.0
9	28.83100128	0	0	-0.008896872401	0.3223628998	-3.161392927	1.0
10	28.83100128	0	0	-0.009752430953	0.3373328745	-3.308340549	1.0
[LeftHandIndex4]
7	23.92700005	0	0	0	0	0	1.0
8	23.92700005	0	0	0	0	0	1.0
9	23.92700005	0	0	0	0	0	1.0
10	23.92700005	0	0	0	0	0	1.0
[LeftHandMiddle1]
7	95.33399963	0	0	-3.197771788	-0.6985801458	-43.88555145	1.0
8	95.33399963	0	0	-3.173274994	-0.6970639229	-43.64387894	1.0
9	95.33399963	0	0	-3.113767147	-0.7006353736	-43.05244446	1.0
10	95.33399963	0	0	-3.131093025	-0.7012805939	-43.22480774	1.0
[LeftHandMiddle2]
7	36.98199844	0	0	-1.661548257	4.077534199	-44.32654953	1.0
8	36.98199844	0	0	-1.644008398	4.059701443	-44.08046722	1.0
9	36.98199844	0	0	-1.601698279	4.015499592	-43.47842026	1.0
10	36.98199844	0	0	-1.613997221	4.028409481	-43.65389633	1.0
[LeftHandMiddle3]
7	29.50900078	0	0	-6.537202717e-05	-0.0270739235	0.2653619647	1.0
8	29.50900078	0	0	-0.0001197205129	-0.0465532206	0.4562759995	1.0
9	29.50900078	0	0	-0.0007584513514	-0.09419707954	0.9233304858	1.0
10	29.50900078	0	0	-0.0005583605962	-0.08030676097	0.7871550918	1.0
[LeftHandMiddle4]
7	28.3390007	0	0	0	0	0	1.0
8	28.3390007	0	0	0	0	0	1.0
9	28.3390007	0	0	0	0	0	1.0
10	28.3390007	0	0	0	0	0	1.0
[LeftHandRing1]
7	91.04499817	-0.4390000105	-18.65100098	-3.488323212	3.43329525	-46.59643555	1.0
8	91.04499817	-0.4390000105	-18.65100098	-3.456708431	3.426028013	-46.28955841	1.0
9	91.04499817	-0.4390000105	-18.65100098	-3.379960775	3.403031111	-45.53897095	1.0
10	91.04499817	-0.4390000105	-18.65100098	-3.402317047	3.408744574	-45.75782013	1.0
[LeftHandRing2]
7	31.54000092	0	0	-3.307036161	5.254493237	-64.348526	1.0
8	31.54000092	0	0	-3.278764009	5.241071701	-64.04029846	1.0
9	31.54000092	0	0	-3.210193634	5.20707655	-63.28632355	1.0
10	31.54000092	0	0	-3.230165005	5.217035294	-63.50614548	1.0
[LeftHandRing3]
7	29.37700081	0	0	-0.1194674373	1.175649643	-11.60438538	1.0
8	29.37700081	0	0	-0.1131152958	1.1451509	-11.29897308	1.0
9	29.37700081	0	0	-0.09883923829	1.070308924	-10.55184746	1.0
10	29.37700081	0	0	-0.1029465273	1.092137098	-10.76966	1.0
[LeftHandRing4]
7	26.47500038	0	0	0	0	0	1.0
8	26.47500038	0	0	0	0	0	1.0
9	26.47500038	0	0	0	0	0	1.0
10	26.47500038	0	0	0	0	0	1.0
[LeftHandPinky1]
7	80.77799988	-4.887000084	-38.06099701	-5.172548771	4.746793747	-59.17094803	1.0
8	80.77799988	-4.887000084	-38.06099701	-5.13427639	4.746108055	-58.73103714	1.0
9	80.77799988	-4.887000084	-38.06099701	-5.043575287	4.736835003	-57.65503311	1.0
10	80.77799988	-4.887000084	-38.06099701	-5.070619583	4.738427162	-57.96876144	1.0
[LeftHandPinky2]
7	36	0	0	-5.129000187	5.7835989	-83.12402344	1.0
8	36	0	0	-5.084565639	5.778445244	-82.6835022	1.0
9	36	0	0	-4.976268291	5.763226032	-81.60585785	1.0
10	36	0	0	-5.007823467	5.767772198	-81.91999817	1.0
[LeftHandPinky3]
7	21.14200211	0	0	-0.9052113295	3.122611523	-32.32571411	1.0
8	21.14200211	0	0	-0.8812268972	3.085095406	-31.88834381	1.0
9	21.14200211	0	0	-0.8248253465	2.991986275	-30.81859207	1.0
10	21.14200211	0	0	-0.8411793113	3.01919055	-31.13046265	1.0
[LeftHandPinky4]
7	19.75699997	0	0	0	0	0	1.0
8	19.75699997	0	0	0	0	0	1.0
9	19.75699997	0	0	0	0	0	1.0
10	19.75699997	0	0	0	0	0	1.0
[RightShoulder]
7	-45.70000076	109.4620056	-26.28000069	0.6922408938	0.3736013174	11.91779137	1.0
8	-45.70000076	109.4620056	-26.28000069	0.3723669648	-1.227683306	12.24231434	1.0
9	-45.70000076	109.4620056	-26.28000069	-0.0562643595	-3.467677832	11.97875977	1.0
10	-45.70000076	109.4620056	-26.28000069	-0.7196468711	-7.488255501	8.856251717	1.0
[RightArm]
7	-105.9280014	-5.248000145	-22.32099915	12.16860867	8.044262886	38.1700592	1.0
8	-105.9280014	-5.248000145	-22.32099915	12.10853291	0.2790038586	42.61206436	1.0
9	-105.9280014	-5.248000145	-22.32099915	11.73243427	-7.788403511	46.31355286	1.0
10	-105.9280014	-5.248000145	-22.32099915	12.37157917	-18.18671799	48.12849045	1.0
[RightForeArm]
7	-278.414978	0	0	-2.04457956e-05	79.19107819	7.027932952e-06	1.0
8	-278.414978	0	0	-1.553695256e-06	67.29558563	1.426839299e-05	1.0
9	-278.414978	0	0	2.354085518e-05	55.174366	2.753714762e-05	1.0
10	-278.414978	0	0	1.479626007e-05	48.56810379	1.303205318e-05	1.0
[RightHand]
7	-283.2879944	0	0.0009999999311	15.34436989	13.41859722	-15.82332897	1.0
8	-283.2879944	0	0.0009999999311	20.73542404	12.74986458	-8.998401642	1.0
9	-283.2879944	0	0.0009999999311	26.66063499	13.72100353	-2.673954964	1.0
10	-283.2879944	0	0.0009999999311	31.48591232	22.260252	-4.575241089	1.0
[RightHandPinky1]
7	-80.76699829	-4.885000229	-38.06000137	-1.710465312	-12.61884975	9.604373932	1.0
8	-80.76699829	-4.885000229	-38.06000137	-1.574951172	-16.85737991	7.685855389	1.0
9	-80.76699829	-4.885000229	-38.06000137	-1.564873457	-19.83830643	8.315847397	1.0
10	-80.76699829	-4.885000229	-38.06000137	-1.874379039	-19.0892849	14.92964745	1.0
[RightHandPinky2]
7	-36	0	0.0009999999311	-0.8281829953	-2.644674063	34.7907486	1.0
8	-36	0	0.0009999999311	-0.746671021	-2.5370965	33.1192894	1.0
9	-36	0	0.0009999999311	-0.7878479362	-2.585647583	33.90649414	1.0
10	-36	0	0.0009999999311	-1.103405356	-3.002120972	40.373909	1.0
[RightHandPinky3]
7	-21.14200211	0	0	-0.1149713472	1.026517272	-12.78111553	1.0
8	-21.14200211	0	0	-0.1211143136	1.075974822	-13.39588737	1.0
9	-21.14200211	0	0	-0.1002053842	0.95906353	-11.92815018	1.0
10	-21.14200211	0	0	-0.02321088873	0.4635696113	-5.733136177	1.0
[RightHandPinky4]
7	-19.75699997	0	0	0	0	0	1.0
8	-19.75699997	0	0	0	0	0	1.0
9	-19.75699997	0	0	0	0	0	1.0
10	-19.75699997	0	0	0	0	0	1.0
[RightHandRing1]
7	-91.03599548	-0.4390000105	-18.65100098	-0.2937183082	-6.306609631	7.730354309	1.0
8	-91.03599548	-0.4390000105	-18.65100098	-0.1573027074	-8.007320404	5.314650059	1.0
9	-91.03599548	-0.4390000105	-18.65100098	-0.1507652849	-9.171347618	5.225288868	1.0
10	-91.03599548	-0.4390000105	-18.65100098	-0.4321072102	-8.963576317	10.6089077	1.0
[RightHandRing2]
7	-31.54000092	0	0	-0.4887512028	-2.072414637	26.53695107	1.0
8	-31.54000092	0	0	-0.4047316909	-1.909980059	24.27348709	1.0
9	-31.54000092	0	0	-0.4106155038	-1.908071041	24.28745651	1.0
10	-31.54000092	0	0	-0.6069039106	-2.29365921	29.63789558	1.0
[RightHandRing3]
7	-29.37700081	0	0	-0.1635327339	1.2209903	-15.25700283	1.0
8	-29.37700081	0	0	-0.1374142319	1.120346069	-13.97364044	1.0
9	-29.37700081	0	0	-0.09720617533	0.9447771907	-11.74795341	1.0
10	-29.37700081	0	0	-0.03787577152	0.5917035937	-7.325648308	1.0
[RightHandRing4]
7	-26.47500038	0	0	0	0	0	1.0
8	-26.47500038	0	0	0	0	0	1.0
9	-26.47500038	0	0	0	0	0	1.0
10	-26.47500038	0	0	0	0	0	1.0
[RightHandMiddle1]
7	-95.32500458	0	0	-0.4370082021	0.2696292698	10.46504402	1.0
8	-95.32500458	0	0	-0.2990581989	-0.1784215569	7.883952141	1.0
9	-95.32500458	0	0	-0.2854950428	-0.4560954869	7.490892887	1.0
10	-95.32500458	0	0	-0.5396148562	-0.2993990779	12.2688427	1.0
[RightHandMiddle2]
7	-36.98199844	0	0	-0.09079321474	-0.9134269357	11.35269737	1.0
8	-36.98199844	0	0	-0.04916102439	-0.7102176547	8.787689209	1.0
9	-36.98199844	0	0	-0.05007217079	-0.6799013615	8.425073624	1.0
10	-36.98199844	0	0	-0.1237190738	-1.064371943	13.26106167	1.0
[RightHandMiddle3]
7	-29.50900078	0	0	-0.1579455286	1.198310375	-14.99264431	1.0
8	-29.50900078	0	0	-0.1479771733	1.161984444	-14.52746964	1.0
9	-29.50900078	0	0	-0.1310362965	1.092901707	-13.64871883	1.0
10	-29.50900078	0	0	-0.08420407772	0.8779002428	-10.931036	1.0
[RightHandMiddle4]
7	-28.3390007	0	0.0009999999311	0	0	0	1.0
8	-28.3390007	0	0.0009999999311	0	0	0	1.0
9	-28.3390007	0	0.0009999999311	0	0	0	1.0
10	-28.3390007	0	0.0009999999311	0	0	0	1.0
[RightHandIndex1]
7	-91.08300018	-5.167999744	22.60099792	-0.0902132839	4.304992199	4.306764603	1.0
8	-91.08300018	-5.167999744	22.60099792	0.02390856482	4.558973789	1.621292472	1.0
9	-91.08300018	-5.167999744	22.60099792	0.04071446508	4.735239506	1.047765732	1.0
10	-91.08300018	-5.167999744	22.60099792	-0.1542772651	4.727410316	5.492757797	1.0
[RightHandIndex2]
7	-36.76399994	0	0	-2.848571421e-05	-0.01687063463	0.2082746178	1.0
8	-36.76399994	0	0	0.0001781292085	-0.06464789063	0.7976475954	1.0
9	-36.76399994	0	0	-0.003948636353	-0.1913890392	2.363861084	1.0
10	-36.76399994	0	0	-0.02602774277	-0.4908266962	6.071619511	1.0
[RightHandIndex3]
7	-28.83100128	0	0	-0.1610777378	1.211924314	-15.14089394	1.0
8	-28.83100128	0	0	-0.1415427327	1.137408614	-14.18997192	1.0
9	-28.83100128	0	0	-0.1088858619	0.9993388653	-12.43715858	1.0
10	-28.83100128	0	0	-0.05561963841	0.7163161635	-8.880020142	1.0
[RightHandIndex4]
7	-23.92700005	0	0	0	0	0	1.0
8	-23.92700005	0	0	0	0	0	1.0
9	-23.92700005	0	0	0	0	0	1.0
10	-23.92700005	0	0	0	0	0	1.0
[RightHandThumb1]
7	-24.64799881	-15.72700024	26.82600021	-6.370816708	14.02442741	7.334411621	1.0
8	-24.64799881	-15.72700024	26.82600021	-6.074318886	13.07596397	7.110863209	1.0
9	-24.64799881	-15.72700024	26.82600021	-5.684525013	11.83643723	6.81509161	1.0
10	-24.64799881	-15.72700024	26.82600021	-5.108753204	10.04824734	6.375475407	1.0
[RightHandThumb2]
7	-32.29800034	-18.64699936	18.64699936	6.354507446	-4.174862385	-15.97258854	1.0
8	-32.29800034	-18.64699936	18.64699936	6.514717579	-5.068682671	-16.18196869	1.0
9	-32.29800034	-18.64699936	18.64699936	6.727039337	-6.237141609	-16.45807457	1.0
10	-32.29800034	-18.64699936	18.64699936	7.046730042	-7.92484951	-16.86766815	1.0
[RightHandThumb3]
7	-26.52600098	-15.31399918	15.31399918	-29.0967865	24.31232643	-23.42322922	1.0
8	-26.52600098	-15.31399918	15.31399918	-28.77870941	23.71805954	-23.24921799	1.0
9	-26.52600098	-15.31399918	15.31399918	-28.36527252	22.94022179	-23.02496529	1.0
10	-26.52600098	-15.31399918	15.31399918	-27.7788105	21.81232452	-22.71558571	1.0
[RightHandThumb4]
7	-19.54599953	-11.28499985	11.28499985	0	0	0	1.0
8	-19.54599953	-11.28499985	11.28499985	0	0	0	1.0
9	-19.54599953	-11.28499985	11.28499985	0	0	0	1.0
10	-19.54599953	-11.28499985	11.28499985	0	0	0	1.0
[LeftUpLeg]
7	82.07800293	-67.51699829	-15.99599934	-58.48970413	0.001184992841	-6.649583817	1.0
8	82.07800293	-67.51699829	-15.99599934	-52.36660767	0.792303443	-8.666372299	1.0
9	82.07800293	-67.51699829	-15.99599934	-42.98166275	2.129781008	-9.887809753	1.0
10	82.07800293	-67.51699829	-15.99599934	-22.80327606	4.937130928	-9.190677643	1.0
[LeftLeg]
7	0	-443.7049866	2.845999956	37.81959152	-1.844281793	-0.4967338741	1.0
8	0	-443.7049866	2.845999956	48.94458771	-1.408068776	-2.956686974	1.0
9	0	-443.7049866	2.845999956	54.57689285	-2.349859238	-4.615428925	1.0
10	0	-443.7049866	2.845999956	38.93091202	-4.845666409	-0.7810547352	1.0
[LeftFoot]
7	0	-444.2789917	-29.8219986	-0.2307768464	0.6089320183	4.23837471	1.0
8	0	-444.2789917	-29.8219986	-14.36912155	2.224398613	8.590899467	1.0
9	0	-444.2789917	-29.8219986	-31.33137131	3.339630842	10.70639992	1.0
10	0	-444.2789917	-29.8219986	-37.05817413	0.8102185726	10.69157982	1.0
[LeftToeBase]
7	0	-87.28699493	107.1060028	-13.56033707	-2.822834722e-05	9.901385738e-07	1.0
8	0	-87.28699493	107.1060028	-11.68427944	-2.418619624e-05	-2.110188575e-07	1.0
9	0	-87.28699493	107.1060028	-9.829596519	-1.321203854e-05	-1.678123795e-06	1.0
10	0	-87.28699493	107.1060028	-9.829597473	9.996536392e-06	-2.074456006e-06	1.0
[RightUpLeg]
7	-82.07800293	-67.51699829	-15.99599934	-10.47028637	-0.5241858959	-4.711956978	1.0
8	-82.07800293	-67.51699829	-15.99599934	-31.90782928	0.7979422808	-6.510622025	1.0
9	-82.07800293	-67.51699829	-15.99599934	-54.51368713	1.733201861	-6.998922348	1.0
10	-82.07800293	-67.51699829	-15.99599934	-73.09130859	0.5494362712	-1.021983743	1.0
[RightLeg]
7	0	-443.7049866	2.861999989	76.65317535	2.515250921	-6.068272114	1.0
8	0	-443.7049866	2.861999989	98.9878006	0.2730464935	-4.170836926	1.0
9	0	-443.7049866	2.861999989	115.3799133	-1.009794831	-1.538129926	1.0
10	0	-443.7049866	2.861999989	109.1350937	-1.82139194	-0.3824319243	1.0
[RightFoot]
7	0	-444.2770081	-29.83799934	9.14068985	-0.9821797013	6.609798908	1.0
8	0	-444.2770081	-29.83799934	2.226467133	-0.3858369291	0.9904830456	1.0
9	0	-444.2770081	-29.83799934	-5.9672122	0.08044455945	-4.081277847	1.0
10	0	-444.2770081	-29.83799934	-14.49320507	-0.2733006775	-4.44783783	1.0
[RightToeBase]
7	0	-87.28699493	107.1060028	-7.615708828	-3.354359478e-06	-2.461071199e-05	1.0
8	0	-87.28699493	107.1060028	-8.114952087	-6.484166988e-06	2.859087544e-07	1.0
9	0	-87.28699493	107.1060028	-8.271690369	-8.144525964e-06	2.609488183e-05	1.0
10	0	-87.28699493	107.1060028	-6.492600918	2.786926052e-05	-7.734999599e-06	1.0
[EndOfFile]
